<?xml version="1.0" encoding="UTF-8" standalone="no"?>
<!-- Created with Inkscape (http://www.inkscape.org/) -->

<svg
   width="106.00719mm"
   height="142.6463mm"
   viewBox="0 0 106.00719 142.6463"
   version="1.1"
   id="svg5"
   xml:space="preserve"
   xmlns="http://www.w3.org/2000/svg"
   xmlns:svg="http://www.w3.org/2000/svg"><defs
     id="defs2" /><g
     id="layer1"
     style="fill:none;fill-opacity:1;stroke:#000000;stroke-width:1.8;stroke-dasharray:none;stroke-opacity:1"
     transform="translate(-54.82044,-45.644923)"><g
       id="g5246"
       style="fill:#04d2af;fill-opacity:1;stroke:none;stroke-width:1.8;stroke-dasharray:none;stroke-opacity:1"
       transform="matrix(-1.1440474,0.00962032,-0.01038499,-1.061325,229.62985,234.83319)"><rect
         style="fill:#04d2af;fill-opacity:1;stroke:none;stroke-width:0.999484;stroke-linecap:round;stroke-linejoin:bevel;stroke-dasharray:none;stroke-opacity:1;paint-order:stroke fill markers"
         id="rect5090-7-5"
         width="7.4365559"
         height="26.092297"
         x="128.24915"
         y="-170.99593"
         transform="matrix(0.99999816,-0.00191756,0.00158501,-0.99999874,0,0)" /><rect
         style="fill:#04d2af;fill-opacity:1;stroke:none;stroke-width:0.705566;stroke-linecap:round;stroke-linejoin:bevel;stroke-dasharray:none;stroke-opacity:1;paint-order:stroke fill markers"
         id="rect5090-0"
         width="7.4365559"
         height="13.002802"
         x="-90.006744"
         y="-157.8678"
         transform="matrix(-0.99999816,0.00191756,0.00158501,-0.99999874,0,0)" /><rect
         style="display:inline;fill:#04d2af;fill-opacity:1;stroke:none;stroke-width:0.912859;stroke-linecap:round;stroke-linejoin:bevel;stroke-dasharray:none;stroke-opacity:1;paint-order:stroke fill markers"
         id="rect5090-0-1-3"
         width="7.3874989"
         height="21.910147"
         x="112.98515"
         y="-166.79514"
         transform="matrix(0.99999816,-0.00191756,0.00158501,-0.99999874,0,0)" /><rect
         style="fill:#04d2af;fill-opacity:1;stroke:none;stroke-width:0.7483;stroke-linecap:round;stroke-linejoin:bevel;stroke-dasharray:none;stroke-opacity:1;paint-order:stroke fill markers"
         id="rect5090-0-1"
         width="7.4365559"
         height="14.625526"
         x="120.59607"
         y="-159.5126"
         transform="matrix(0.99999816,-0.00191756,0.00158501,-0.99999874,0,0)" /><rect
         style="fill:#04d2af;fill-opacity:1;stroke:none;stroke-width:1.11466;stroke-linecap:round;stroke-linejoin:bevel;stroke-dasharray:none;stroke-opacity:1;paint-order:stroke fill markers"
         id="rect5090-7"
         width="7.3319173"
         height="32.915436"
         x="-82.412025"
         y="-177.74385"
         transform="matrix(-0.99999816,0.00191756,0.00158501,-0.99999874,0,0)" /><rect
         style="fill:#04d2af;fill-opacity:1;stroke:none;stroke-width:1.15021;stroke-linecap:round;stroke-linejoin:bevel;stroke-dasharray:none;stroke-opacity:1;paint-order:stroke fill markers"
         id="rect5090-0-1-3-8"
         width="7.4365559"
         height="34.555859"
         x="105.33974"
         y="-179.41116"
         transform="matrix(0.99999816,-0.00191756,0.00158501,-0.99999874,0,0)" /><rect
         style="fill:#04d2af;fill-opacity:1;stroke:none;stroke-width:0.858863;stroke-linecap:round;stroke-linejoin:bevel;stroke-dasharray:none;stroke-opacity:1;paint-order:stroke fill markers"
         id="rect5090-0-1-3-1"
         width="7.4365559"
         height="19.266836"
         x="90.13308"
         y="-164.14456"
         transform="matrix(0.99999816,-0.00191756,0.00158501,-0.99999874,0,0)" /><rect
         style="fill:#04d2af;fill-opacity:1;stroke:none;stroke-width:0.605454;stroke-linecap:round;stroke-linejoin:bevel;stroke-dasharray:none;stroke-opacity:1;paint-order:stroke fill markers"
         id="rect5090-0-1-3-3"
         width="7.4365559"
         height="9.574687"
         x="97.731323"
         y="-154.46997"
         transform="matrix(0.99999816,-0.00191756,0.00158501,-0.99999874,0,0)" /></g><g
       id="g3664"
       style="display:inline;stroke:none;stroke-width:2.3;stroke-dasharray:none;stroke-opacity:1"
       transform="matrix(1.1845838,0,0,0.96932614,-13.678054,1.5708003)"><rect
         style="opacity:1;fill:#8d6f2c;fill-opacity:1;stroke:none;stroke-width:2.3;stroke-linecap:round;stroke-linejoin:bevel;stroke-dasharray:none;stroke-opacity:1;paint-order:stroke fill markers"
         id="rect1262"
         width="52.349312"
         height="16.359159"
         x="76.683563"
         y="176.26994" /><path
         style="opacity:1;fill:#8d6f2c;fill-opacity:1;stroke:none;stroke-width:2.3;stroke-linecap:round;stroke-linejoin:bevel;stroke-dasharray:none;stroke-opacity:1;paint-order:stroke fill markers"
         d="m 115.15244,168.70383 c 0,0 3.06734,1.43143 4.29428,6.54367 l -17.58098,-0.0496 -17.002598,0.0496 c 1.226937,-5.11224 4.294278,-6.54367 4.294278,-6.54367 11.04243,-6.13468 13.2144,-8.74342 13.2144,-8.74342 0,0 1.73819,2.60874 12.78062,8.74342 z"
         id="path1208" /><path
         id="path1199"
         style="opacity:1;fill:#8d6f2c;fill-opacity:1;stroke:none;stroke-width:2.3;stroke-linecap:round;stroke-linejoin:bevel;stroke-dasharray:none;stroke-opacity:1;paint-order:stroke fill markers"
         d="m 90.263996,154.86222 c -1.590556,-6.79601 12.843684,-5.78383 12.843684,-5.78383 0,0 14.07275,-0.83144 12.48219,5.96457 0,0 -1.04832,3.86795 -13.13288,4.01254 -12.084546,-0.14459 -12.192994,-4.19328 -12.192994,-4.19328 z" /><path
         id="path1148"
         style="opacity:1;fill:#ebf655;fill-opacity:1;stroke:none;stroke-width:2.3;stroke-linecap:round;stroke-linejoin:bevel;stroke-dasharray:none;stroke-opacity:1;paint-order:stroke fill markers"
         d="m 78.744264,126.66601 c 0,0 -18.074489,-13.15822 -12.579844,-29.208368 l 9.54333,2.313536 M 76.430729,92.107593 60.525178,90.51704 c 0,0 -14.170398,31.08812 22.412367,45.8369" /><path
         id="path1148-1"
         style="fill:#ebf655;fill-opacity:1;stroke:none;stroke-width:2.3;stroke-linecap:round;stroke-linejoin:bevel;stroke-dasharray:none;stroke-opacity:1;paint-order:stroke fill markers"
         d="m 126.3946,126.30229 c 0,0 18.07449,-13.15822 12.57984,-29.20837 l -9.54333,2.31354 m -0.72298,-7.66359 15.90555,-1.59055 c 0,0 14.1704,31.08812 -22.41236,45.8369" /><path
         id="path1020-5"
         style="opacity:1;fill:#ebf655;fill-opacity:1;stroke:none;stroke-width:2.3;stroke-linecap:round;stroke-linejoin:bevel;stroke-dasharray:none;stroke-opacity:1;paint-order:stroke fill markers"
         d="m 128.333,84.429529 c 7.51898,68.249261 -25.74014,64.497011 -25.74014,64.497011 0,0 -33.186824,3.76674 -25.667836,-64.482529 L 128.333,84.429529" /></g><ellipse
       style="opacity:1;fill:#ffffff;fill-opacity:1;stroke:none;stroke-width:1.83717;stroke-linecap:round;stroke-linejoin:bevel;stroke-dasharray:none;stroke-opacity:1;paint-order:stroke fill markers"
       id="path7232"
       cx="99.362831"
       cy="106.51482"
       rx="5.1292367"
       ry="7.0221243" /><ellipse
       style="fill:#ffffff;fill-opacity:1;stroke:none;stroke-width:1.83717;stroke-linecap:round;stroke-linejoin:bevel;stroke-dasharray:none;stroke-opacity:1;paint-order:stroke fill markers"
       id="path7232-0"
       cx="116.34424"
       cy="106.74352"
       rx="5.1292367"
       ry="7.0221243" /></g></svg>
